<?xml version="1.0" standalone="no"?>
<!DOCTYPE svg PUBLIC "-//W3C//DTD SVG 20010904//EN"
 "http://www.w3.org/TR/2001/REC-SVG-20010904/DTD/svg10.dtd">
<svg version="1.0" xmlns="http://www.w3.org/2000/svg"
 width="144.000000pt" height="144.000000pt" viewBox="0 0 144.000000 144.000000"
 preserveAspectRatio="xMidYMid meet">
<metadata>
Created by potrace 1.15, written by Peter Selinger 2001-2017
</metadata>
<g transform="translate(0.000000,144.000000) scale(0.100000,-0.100000)"
fill="#000000" stroke="none">
<path d="M497 1416 c-181 -64 -342 -199 -419 -351 -56 -108 -70 -166 -75 -305
-6 -156 5 -216 66 -345 99 -209 276 -353 494 -400 94 -21 269 -16 358 8 195
55 358 190 449 374 57 115 70 179 70 335 0 122 -3 143 -29 220 -69 207 -240
382 -450 458 -78 29 -89 30 -239 30 -140 0 -164 -3 -225 -24z m429 -20 c110
-35 195 -88 285 -176 89 -88 151 -188 185 -297 32 -104 34 -273 4 -381 -73
-263 -282 -457 -547 -508 -156 -30 -288 -11 -442 63 -79 38 -108 58 -175 127
-94 95 -137 162 -178 283 -39 111 -48 251 -24 363 22 106 92 241 165 322 65
70 193 159 276 191 136 52 310 57 451 13z"/>
<path d="M623 1329 c-28 -5 -81 -20 -118 -33 -287 -109 -451 -422 -376 -719
20 -77 48 -143 58 -134 2 3 30 149 62 324 l57 318 65 3 66 3 27 -124 c14 -69
33 -162 41 -207 8 -46 17 -85 19 -87 3 -3 7 10 10 28 9 63 58 344 63 367 5 21
10 22 89 22 46 0 84 -1 84 -2 2 -31 60 -471 62 -474 2 -2 22 103 43 234 l40
237 54 0 54 0 32 -170 c18 -93 38 -204 46 -245 13 -75 13 -75 21 -35 4 22 19
144 34 270 l26 230 -45 40 c-145 128 -334 184 -514 154z m222 -34 c89 -19 196
-71 260 -128 l49 -44 -18 -154 c-10 -85 -22 -157 -25 -162 -4 -4 -20 60 -35
142 -15 81 -32 153 -39 160 -15 15 -122 14 -135 -2 -6 -7 -23 -80 -37 -162
-15 -83 -28 -151 -29 -152 -1 -1 -10 65 -20 148 -12 95 -24 156 -33 165 -20
20 -176 20 -196 0 -7 -8 -24 -73 -37 -145 -13 -72 -26 -129 -28 -126 -2 2 -17
63 -32 136 -16 72 -34 136 -42 140 -22 14 -144 11 -157 -4 -6 -8 -34 -145 -63
-306 -51 -287 -52 -292 -66 -254 -20 55 -27 233 -12 302 69 315 377 513 695
446z"/>
<path d="M1239 680 l-44 -250 -65 0 -65 0 -33 153 c-18 84 -35 176 -39 205 -8
68 -20 75 -28 15 -9 -65 -43 -261 -56 -322 l-11 -51 -84 0 c-46 0 -84 3 -84 8
0 16 -51 429 -57 452 -3 15 -21 -65 -44 -205 -22 -126 -41 -236 -44 -242 -3
-8 -23 -13 -54 -13 -39 0 -51 4 -55 17 -2 10 -21 110 -41 223 -20 113 -39 216
-42 230 -7 29 -12 4 -44 -260 -11 -96 -27 -215 -34 -265 l-14 -90 41 -38 c83
-76 251 -137 378 -137 87 0 188 26 280 71 154 77 273 226 316 399 26 103 8
350 -25 350 -4 0 -27 -112 -52 -250z m66 2 c-25 -308 -276 -541 -582 -542 -40
0 -96 5 -125 11 -60 12 -199 77 -241 112 l-28 23 15 105 c9 57 22 158 31 223
8 66 16 120 18 122 1 2 16 -69 32 -157 32 -177 33 -179 107 -179 71 0 75 7
106 184 l28 159 21 -162 c13 -109 25 -166 34 -172 19 -12 166 -11 188 1 14 7
24 41 42 144 13 75 26 132 30 128 3 -4 17 -61 30 -127 15 -75 31 -126 42 -137
21 -22 124 -25 150 -5 13 9 27 67 55 220 33 189 38 204 45 165 4 -24 5 -76 2
-116z"/>
</g>
</svg>
